<svg width="569" height="569" viewBox="0 0 569 569" fill="none" xmlns="http://www.w3.org/2000/svg">
<g clip-path="url(#clip0_302_76)">
<mask id="path-1-outside-1_302_76" maskUnits="userSpaceOnUse" x="32" y="20" width="513" height="529" fill="black">
<rect fill="white" x="32" y="20" width="513" height="529"/>
<path d="M288.443 537.4C242.043 537.4 200.243 526.8 163.043 505.6C125.843 484 96.443 454 74.843 415.6C53.643 377.2 43.043 333.4 43.043 284.2C43.043 235 53.643 191.2 74.843 152.8C96.443 114.4 125.843 84.6 163.043 63.4C200.243 41.8 242.043 31 288.443 31C334.843 31 376.643 41.8 413.843 63.4C451.043 84.6 480.243 114.4 501.443 152.8C522.643 191.2 533.243 235 533.243 284.2C533.243 333.4 522.643 377.2 501.443 415.6C480.243 454 451.043 484 413.843 505.6C376.643 526.8 334.843 537.4 288.443 537.4ZM288.443 460C320.443 460 349.043 452.8 374.243 438.4C399.843 423.6 419.843 403 434.243 376.6C448.643 349.8 455.843 319 455.843 284.2C455.843 249.4 448.643 218.8 434.243 192.4C419.843 165.6 399.843 145 374.243 130.6C349.043 115.8 320.443 108.4 288.443 108.4C256.443 108.4 227.643 115.8 202.043 130.6C176.443 145 156.443 165.6 142.043 192.4C127.643 218.8 120.443 249.4 120.443 284.2C120.443 319 127.643 349.8 142.043 376.6C156.443 403 176.443 423.6 202.043 438.4C227.643 452.8 256.443 460 288.443 460Z"/>
</mask>
<path d="M288.443 537.4C242.043 537.4 200.243 526.8 163.043 505.6C125.843 484 96.443 454 74.843 415.6C53.643 377.2 43.043 333.4 43.043 284.2C43.043 235 53.643 191.2 74.843 152.8C96.443 114.4 125.843 84.6 163.043 63.4C200.243 41.8 242.043 31 288.443 31C334.843 31 376.643 41.8 413.843 63.4C451.043 84.6 480.243 114.4 501.443 152.8C522.643 191.2 533.243 235 533.243 284.2C533.243 333.4 522.643 377.2 501.443 415.6C480.243 454 451.043 484 413.843 505.6C376.643 526.8 334.843 537.4 288.443 537.4ZM288.443 460C320.443 460 349.043 452.8 374.243 438.4C399.843 423.6 419.843 403 434.243 376.6C448.643 349.8 455.843 319 455.843 284.2C455.843 249.4 448.643 218.8 434.243 192.4C419.843 165.6 399.843 145 374.243 130.6C349.043 115.8 320.443 108.4 288.443 108.4C256.443 108.4 227.643 115.8 202.043 130.6C176.443 145 156.443 165.6 142.043 192.4C127.643 218.8 120.443 249.4 120.443 284.2C120.443 319 127.643 349.8 142.043 376.6C156.443 403 176.443 423.6 202.043 438.4C227.643 452.8 256.443 460 288.443 460Z" fill="#00A0FF"/>
<path d="M163.043 505.6L157.52 515.113L157.558 515.135L157.597 515.157L163.043 505.6ZM74.843 415.6L65.2131 420.917L65.2342 420.955L65.2556 420.993L74.843 415.6ZM74.843 152.8L65.2556 147.407L65.2342 147.445L65.2131 147.483L74.843 152.8ZM163.043 63.4L168.489 72.957L168.528 72.935L168.566 72.9127L163.043 63.4ZM413.843 63.4L408.32 72.9127L408.358 72.935L408.397 72.957L413.843 63.4ZM501.443 152.8L511.073 147.483L501.443 152.8ZM501.443 415.6L511.073 420.917L501.443 415.6ZM413.843 505.6L419.289 515.157L419.328 515.135L419.366 515.113L413.843 505.6ZM374.243 438.4L379.701 447.951L379.725 447.937L379.749 447.923L374.243 438.4ZM434.243 376.6L443.9 381.867L443.916 381.837L443.933 381.806L434.243 376.6ZM434.243 192.4L424.553 197.606L424.57 197.637L424.586 197.667L434.243 192.4ZM374.243 130.6L368.672 140.085L368.761 140.137L368.85 140.187L374.243 130.6ZM202.043 130.6L207.436 140.187L207.492 140.156L207.549 140.123L202.043 130.6ZM142.043 192.4L151.7 197.667L151.716 197.637L151.733 197.606L142.043 192.4ZM142.043 376.6L132.353 381.806L132.37 381.837L132.386 381.867L142.043 376.6ZM202.043 438.4L196.537 447.923L196.594 447.956L196.65 447.987L202.043 438.4ZM288.443 526.4C243.788 526.4 203.893 516.219 168.489 496.043L157.597 515.157C196.593 537.381 240.298 548.4 288.443 548.4V526.4ZM168.566 496.087C133.107 475.498 105.092 446.939 84.4303 410.207L65.2556 420.993C87.7938 461.061 118.579 492.502 157.52 515.113L168.566 496.087ZM84.4729 410.284C64.2766 373.702 54.043 331.771 54.043 284.2H32.043C32.043 335.029 43.0093 380.698 65.2131 420.917L84.4729 410.284ZM54.043 284.2C54.043 236.629 64.2766 194.698 84.4729 158.116L65.2131 147.483C43.0093 187.702 32.043 233.371 32.043 284.2H54.043ZM84.4303 158.193C105.083 121.478 133.074 93.1402 168.489 72.957L157.597 53.843C118.612 76.0598 87.8033 107.322 65.2556 147.407L84.4303 158.193ZM168.566 72.9127C203.957 52.3631 243.825 42 288.443 42V20C240.261 20 196.529 31.2368 157.52 53.8873L168.566 72.9127ZM288.443 42C333.061 42 372.929 52.3631 408.32 72.9127L419.366 53.8873C380.357 31.2368 336.625 20 288.443 20V42ZM408.397 72.957C443.794 93.1297 471.566 121.442 491.813 158.116L511.073 147.483C488.92 107.358 458.292 76.0703 419.289 53.843L408.397 72.957ZM491.813 158.116C512.009 194.698 522.243 236.629 522.243 284.2H544.243C544.243 233.371 533.277 187.702 511.073 147.483L491.813 158.116ZM522.243 284.2C522.243 331.771 512.009 373.702 491.813 410.284L511.073 420.917C533.277 380.698 544.243 335.029 544.243 284.2H522.243ZM491.813 410.284C471.557 446.975 443.76 475.509 408.32 496.087L419.366 515.113C458.326 492.491 488.93 461.025 511.073 420.917L491.813 410.284ZM408.397 496.043C372.993 516.219 333.098 526.4 288.443 526.4V548.4C336.588 548.4 380.293 537.381 419.289 515.157L408.397 496.043ZM288.443 471C322.156 471 352.672 463.396 379.701 447.951L368.785 428.849C345.414 442.204 318.73 449 288.443 449V471ZM379.749 447.923C407.128 432.094 428.55 410.008 443.9 381.867L424.586 371.333C411.136 395.992 392.558 415.105 368.737 428.877L379.749 447.923ZM443.933 381.806C459.31 353.188 466.843 320.553 466.843 284.2H444.843C444.843 317.447 437.976 346.411 424.553 371.393L443.933 381.806ZM466.843 284.2C466.843 247.851 459.311 215.386 443.9 187.133L424.586 197.667C437.975 222.214 444.843 250.949 444.843 284.2H466.843ZM443.933 187.194C428.582 158.625 407.122 136.474 379.636 121.013L368.85 140.187C392.564 153.526 411.104 172.575 424.553 197.606L443.933 187.194ZM379.814 121.115C352.767 105.23 322.21 97.4 288.443 97.4V119.4C318.676 119.4 345.319 126.37 368.672 140.085L379.814 121.115ZM288.443 97.4C254.674 97.4 223.947 105.23 196.537 121.077L207.549 140.123C231.339 126.369 258.212 119.4 288.443 119.4V97.4ZM196.65 121.013C169.164 136.474 147.704 158.625 132.353 187.194L151.733 197.606C165.182 172.575 183.722 153.526 207.436 140.187L196.65 121.013ZM132.386 187.133C116.975 215.386 109.443 247.851 109.443 284.2H131.443C131.443 250.949 138.311 222.214 151.7 197.667L132.386 187.133ZM109.443 284.2C109.443 320.553 116.976 353.188 132.353 381.806L151.733 371.394C138.31 346.411 131.443 317.447 131.443 284.2H109.443ZM132.386 381.867C147.736 410.008 169.158 432.094 196.537 447.923L207.549 428.877C183.728 415.105 165.15 395.992 151.7 371.333L132.386 381.867ZM196.65 447.987C224.042 463.395 254.728 471 288.443 471V449C258.158 449 231.244 442.205 207.436 428.813L196.65 447.987Z" fill="#00A0FF" mask="url(#path-1-outside-1_302_76)"/>
</g>
<defs>
<clipPath id="clip0_302_76">
<rect width="569" height="569" fill="white"/>
</clipPath>
</defs>
</svg>
